<svg width="154" height="34" viewBox="0 0 154 34" fill="none" xmlns="http://www.w3.org/2000/svg">
    <path d="M52.096 0.81933H57.7533L68.7167 18.6105L79.6801 0.81933H85.3374V32.6171H78.2365V15.1771L70.8626 27.389H66.5708L59.1969 15.1771V32.6171H52.096V0.81933Z"
          fill="white"/>
    <path d="M110.428 26.4526H98.0991L95.8752 32.6171H88.5403L100.869 0.81933H108.243L120.572 32.6171H112.652L110.428 26.4526ZM108.243 20.2881L104.264 9.20769L100.284 20.2881H108.243Z"
          fill="white"/>
    <path d="M137.809 33.3974C134.583 33.3974 131.67 32.6691 129.069 31.2125C126.494 29.7819 124.465 27.8051 122.983 25.2821C121.526 22.7331 120.798 19.872 120.798 16.6987C120.798 13.5254 121.526 10.6773 122.983 8.15427C124.465 5.60525 126.494 3.61545 129.069 2.18488C131.67 0.728292 134.583 0 137.809 0C140.644 0 143.18 0.520209 145.417 1.56063C147.679 2.60104 149.513 4.03162 150.918 5.85235C152.322 7.67308 153.246 9.7149 153.688 11.9778H146.509C146.119 10.4172 145.143 9.11666 143.583 8.07624C142.048 7.03582 140.175 6.51561 137.965 6.51561C136.066 6.51561 134.349 6.95779 132.815 7.84214C131.28 8.70049 130.07 9.90997 129.186 11.4706C128.328 13.0052 127.899 14.7479 127.899 16.6987C127.899 18.6235 128.328 20.3662 129.186 21.9268C130.07 23.4874 131.28 24.7099 132.815 25.5943C134.349 26.4526 136.066 26.8818 137.965 26.8818C139.421 26.8818 140.787 26.5957 142.061 26.0234C143.362 25.4512 144.428 24.7099 145.261 23.7995C146.119 22.8892 146.639 21.9528 146.821 20.9904H154C153.662 23.1493 152.765 25.1781 151.308 27.0769C149.851 28.9756 147.94 30.4972 145.573 31.6417C143.232 32.8122 140.644 33.3974 137.809 33.3974Z"
          fill="white"/>
    <circle cx="43" cy="11" r="3" fill="white"/>
    <circle cx="43" cy="22" r="3" fill="white"/>
    <path d="M17.0108 0C19.7159 0 22.1739 0.468188 24.3848 1.40456C26.6217 2.34094 28.4814 3.61545 29.964 5.2281C31.4726 6.84074 32.539 8.64847 33.1633 10.6513H25.3602C24.6579 9.42878 23.5784 8.44038 22.1219 7.68608C20.6913 6.90577 19.0396 6.51561 17.1669 6.51561C15.2681 6.51561 13.5514 6.95779 12.0168 7.84214C10.4822 8.70049 9.27272 9.90997 8.38836 11.4706C7.53002 13.0052 7.10085 14.7479 7.10085 16.6987C7.10085 18.6495 7.53002 20.4182 8.38836 22.0048C9.27272 23.5655 10.4822 24.7879 12.0168 25.6723C13.5514 26.5567 15.2681 26.9988 17.1669 26.9988C18.7535 26.9988 20.1971 26.7127 21.4976 26.1405C22.7981 25.5683 23.8516 24.8139 24.6579 23.8776C25.4902 22.9152 26.0364 21.9008 26.2965 20.8344H16.5816V14.8259H33.8656V16.6987C33.8656 19.872 33.1243 22.7331 31.6417 25.2821C30.1851 27.8051 28.1693 29.7819 25.5943 31.2125C23.0452 32.6691 20.1841 33.3974 17.0108 33.3974C13.7855 33.3974 10.8724 32.6691 8.27132 31.2125C5.69628 29.7819 3.66747 27.8051 2.18488 25.2821C0.728292 22.7331 0 19.872 0 16.6987C0 13.5254 0.728292 10.6773 2.18488 8.15427C3.66747 5.60525 5.69628 3.61545 8.27132 2.18488C10.8724 0.728292 13.7855 0 17.0108 0Z"
          fill="white"/>
</svg>
