<svg width="200" height="35" viewBox="0 0 200 35" fill="none" xmlns="http://www.w3.org/2000/svg">
<g clip-path="url(#clip0_84_844)">
<path d="M52.2355 14.9792C52.2355 11.7872 55.6178 9.19971 59.7823 9.19971C63.9467 9.19971 67.329 11.7872 67.329 14.9792C67.329 18.1713 63.9467 20.763 59.7823 20.763C55.6178 20.763 52.2355 18.1755 52.2355 14.9792ZM59.7823 18.4672C61.9596 18.4672 63.7311 16.9071 63.7311 14.9792C63.7311 13.0513 61.9596 11.4912 59.7823 11.4912C57.6049 11.4912 55.8334 13.0555 55.8334 14.9792C55.8334 16.9029 57.6007 18.4672 59.7823 18.4672Z" fill="#1D1D1B"/>
<path d="M56.7297 7.17907C54.2945 11.0434 48.274 12.2821 44.8705 11.9228V9.94835C50.7092 10.2105 53.7237 6.89581 53.7026 3.24715H45.5343V1.37842H58.0404C58.1587 5.03554 56.7297 7.17907 56.7297 7.17907Z" fill="#1D1D1B"/>
<path d="M65.7774 1.37402H59.778V3.2512H63.7226V5.00578H59.778V6.87873H63.7226V13.6222L67.3671 15.2161V2.79459C67.3333 1.3698 65.7774 1.37402 65.7774 1.37402Z" fill="#1D1D1B"/>
<path d="M70.056 13.7872V11.8128C74.3473 11.7367 80.3255 9.82572 80.389 3.23445H70.7198V1.36572H84.731C84.731 12.2906 76.7065 13.8887 70.056 13.7872Z" fill="#1D1D1B"/>
<path d="M90.9544 1.36963H87.3227V19.799H90.9544V1.36963Z" fill="#1D1D1B"/>
<path d="M100.56 9.68164V13.1358H106.602V15.8501H98.9367C98.5451 15.8824 98.1557 15.7662 97.8459 15.5246C97.5653 15.1515 97.4341 14.6871 97.4781 14.2224V1.35693H105.596V4.06278H100.56V7.08994H105.3V9.67317L100.56 9.68164ZM106.306 6.98848H107.786V1.35693H110.656V19.9216H107.786V9.77465H106.306V6.98848ZM111.777 1.35693H114.736V19.9173H111.777V1.35693Z" fill="#1D1D1B"/>
<path d="M132.024 4.06278H118.981V1.35693H135.077V16.2306H136.489V18.9492H118.004V16.2306H132.024V10.3327H119.091V7.6142H132.024V4.06278Z" fill="#1D1D1B"/>
<path d="M156.504 11.1786H149.917V16.2267H157.632V18.941H139.148V16.2267H146.864V11.1786H141.744C141.346 11.2198 140.948 11.1029 140.636 10.8531C140.34 10.4874 140.2 10.0193 140.247 9.55092V1.37842H143.363V8.46435H156.504V11.1786Z" fill="#1D1D1B"/>
<path d="M170.591 13.1358H175.081V1.35693H178.155V7.74949H180.632V10.4638H178.155V19.9131H175.081V15.8501H160.812V13.1358H162.224V4.06278H160.812V1.35693H172.079V4.06278H170.578L170.591 13.1358ZM165.073 4.06278V13.1274H167.741V4.06278H165.073Z" fill="#1D1D1B"/>
<path d="M195.459 4.06278H182.421V1.35693H198.512V16.2306H199.924V18.9492H181.44V16.2306H195.459V10.3327H182.526V7.6142H195.459V4.06278Z" fill="#1D1D1B"/>
<path d="M128.236 24.0439V25.2743H126.122V31.1214H124.642V25.2743H122.528V24.0439H128.236Z" fill="#1D1D1B" stroke="#1D1D1B" stroke-width="0.99"/>
<path d="M135.178 25.3123H131.534V26.809H134.874V28.0393H131.534V29.8531H135.339V31.1214H130.092V24.0439H135.165L135.178 25.3123Z" fill="#1D1D1B" stroke="#1D1D1B" stroke-width="0.99"/>
<path d="M138.256 24.7797C138.537 24.4923 138.874 24.2665 139.247 24.1165C139.619 23.9666 140.019 23.8958 140.421 23.9087C141.592 23.9087 142.446 24.2977 142.991 25.0756C143.269 25.4616 143.436 25.9164 143.473 26.3905H141.993C141.932 26.1127 141.811 25.8516 141.638 25.6252C141.491 25.4689 141.31 25.3472 141.11 25.269C140.91 25.1907 140.694 25.1579 140.48 25.1729C140.236 25.1663 139.994 25.2223 139.778 25.3356C139.562 25.4488 139.379 25.6155 139.245 25.8197C138.913 26.37 138.755 27.0084 138.793 27.6504C138.748 28.2779 138.916 28.9023 139.271 29.4219C139.411 29.6083 139.593 29.7588 139.802 29.8609C140.012 29.9631 140.243 30.014 140.476 30.0096C140.693 30.0228 140.911 29.9832 141.109 29.8941C141.308 29.805 141.482 29.6691 141.617 29.498C141.794 29.251 141.917 28.9704 141.981 28.6735H143.456C143.362 29.3998 143.018 30.0708 142.484 30.5719C141.94 31.0637 141.225 31.3232 140.493 31.2948C140.052 31.3172 139.612 31.2416 139.204 31.0734C138.796 30.9053 138.43 30.6488 138.133 30.3224C137.529 29.5612 137.228 28.6034 137.288 27.6335C137.271 26.4046 137.594 25.4533 138.256 24.7797Z" fill="#1D1D1B" stroke="#1D1D1B" stroke-width="0.99"/>
<path d="M145.629 31.1214V24.0439H147.109V26.7371H149.836V24.0439H151.316V31.1214H149.836V27.9674H147.109V31.1214H145.629Z" fill="#1D1D1B" stroke="#1D1D1B" stroke-width="0.99"/>
<path d="M153.696 24.0439H155.239L158.009 28.9525V24.0439H159.395V31.1214H157.924L155.083 26.1198V31.1214H153.709L153.696 24.0439Z" fill="#1D1D1B" stroke="#1D1D1B" stroke-width="0.99"/>
<path d="M164.892 30.0264C164.625 30.0358 164.361 29.983 164.119 29.8722C163.876 29.7614 163.663 29.5955 163.496 29.3879C163.156 28.8402 162.976 28.2083 162.976 27.5636C162.976 26.9189 163.156 26.287 163.496 25.7393C163.663 25.5317 163.876 25.3659 164.119 25.2551C164.361 25.1442 164.625 25.0914 164.892 25.1009C165.158 25.0909 165.422 25.144 165.664 25.2556C165.906 25.3673 166.118 25.5345 166.283 25.7435C166.617 26.2924 166.794 26.9229 166.794 27.5657C166.794 28.2086 166.617 28.839 166.283 29.3879C166.117 29.5962 165.905 29.7626 165.663 29.8735C165.422 29.9844 165.157 30.0368 164.892 30.0264ZM168.274 27.5657C168.274 26.272 167.917 25.3024 167.204 24.6569C166.549 24.1182 165.727 23.8237 164.879 23.8237C164.031 23.8237 163.209 24.1182 162.554 24.6569C161.835 25.3038 161.48 26.272 161.48 27.5657C161.48 28.8595 161.835 29.7981 162.554 30.4703C163.209 31.009 164.031 31.3035 164.879 31.3035C165.727 31.3035 166.549 31.009 167.204 30.4703C167.917 29.7995 168.274 28.8313 168.274 27.5657Z" fill="#1D1D1B" stroke="#1D1D1B" stroke-width="0.99"/>
<path d="M174.248 26.2934C174.261 26.4397 174.243 26.587 174.195 26.726C174.148 26.865 174.072 26.9926 173.973 27.1009C173.757 27.2806 173.48 27.3713 173.199 27.3546H171.889V25.2745H173.199C173.477 25.2586 173.752 25.3426 173.973 25.5112C174.073 25.6138 174.149 25.7369 174.197 25.872C174.244 26.0071 174.262 26.1509 174.248 26.2934ZM175.728 26.2934C175.753 25.9833 175.711 25.6714 175.603 25.3793C175.496 25.0873 175.326 24.8221 175.106 24.6022C174.638 24.2171 174.042 24.0211 173.436 24.0526H170.409V31.1216H171.889V28.5849H173.347C173.977 28.626 174.6 28.4416 175.106 28.0649C175.521 27.7393 175.728 27.1263 175.728 26.2892V26.2934Z" fill="#1D1D1B" stroke="#1D1D1B" stroke-width="0.99"/>
<path d="M180.023 25.6632L180.911 28.4452H179.106L180.023 25.6632ZM176.666 31.1214H178.222L178.7 29.6755H181.309L181.769 31.1214H183.368L180.873 24.0439H179.182L176.666 31.1214Z" fill="#1D1D1B" stroke="#1D1D1B" stroke-width="0.99"/>
<path d="M188.348 25.2742C188.582 25.26 188.816 25.3036 189.029 25.401C189.171 25.4882 189.287 25.6137 189.361 25.7632C189.436 25.9127 189.467 26.0802 189.451 26.2466C189.47 26.4069 189.439 26.569 189.364 26.7117C189.288 26.8543 189.172 26.9707 189.029 27.0456C188.803 27.1342 188.561 27.1731 188.318 27.1598H186.737V25.2573L188.348 25.2742ZM188.652 24.0439H185.27V31.1213H186.716V28.3394H188.158C188.458 28.3059 188.759 28.3859 189.003 28.5635C189.186 28.8276 189.269 29.1485 189.236 29.4682V30.1278C189.24 30.3333 189.26 30.5382 189.295 30.7408C189.295 30.8338 189.346 30.9607 189.388 31.1213H191.02V30.9395C190.948 30.8963 190.886 30.8381 190.839 30.7687C190.791 30.6994 190.759 30.6207 190.745 30.5379C190.711 30.3198 190.697 30.099 190.703 29.8783V29.4006C190.727 29.0217 190.657 28.6428 190.5 28.2971C190.348 28.0412 190.114 27.8443 189.836 27.739C190.015 27.6853 190.182 27.5968 190.328 27.4786C190.473 27.3603 190.593 27.2147 190.682 27.0499C190.846 26.7458 190.933 26.4061 190.935 26.0606C190.94 25.8068 190.897 25.5544 190.809 25.3164C190.722 25.1004 190.602 24.8993 190.453 24.7203C190.274 24.5058 190.047 24.3364 189.79 24.2257C189.425 24.0939 189.04 24.0323 188.652 24.0439Z" fill="#1D1D1B" stroke="#1D1D1B" stroke-width="0.99"/>
<path d="M193.345 24.0439H194.791V26.9654L197.531 24.0439H199.438L196.529 26.9527L199.586 31.1214H197.687L195.506 28.0266L194.791 28.7538V31.1214H193.345V24.0439Z" fill="#1D1D1B" stroke="#1D1D1B" stroke-width="0.99"/>
<path d="M112.982 23.9214H111.138V31.2356H112.982V23.9214Z" fill="#1D1D1B"/>
<path d="M104.331 31.2356H108.238V26.7118H104.813V27.9379H106.382V29.9504H104.577C104.318 29.9658 104.058 29.9287 103.814 29.8414C103.57 29.754 103.346 29.6182 103.156 29.442C102.965 29.2659 102.813 29.0531 102.707 28.8164C102.601 28.5797 102.543 28.324 102.539 28.0647V27.0712C102.542 26.8106 102.597 26.5534 102.702 26.3147C102.806 26.076 102.958 25.8608 103.147 25.6818C103.336 25.5027 103.56 25.3635 103.804 25.2725C104.048 25.1814 104.308 25.1404 104.568 25.1517H108.175V23.9341H104.331C102.349 23.9341 100.488 25.2532 100.488 27.05V28.0013C100.488 29.7812 102.349 31.1976 104.331 31.2356Z" fill="#1D1D1B"/>
<path d="M49.0899 31.2356H52.9965V26.7118H49.5719V27.9379H51.1616V29.9504H49.3563C49.0978 29.9652 48.8389 29.9277 48.5952 29.8401C48.3515 29.7524 48.128 29.6165 47.9381 29.4404C47.7482 29.2644 47.5958 29.0518 47.4901 28.8154C47.3843 28.579 47.3274 28.3236 47.3227 28.0647V27.0712C47.3253 26.8108 47.3802 26.5537 47.4842 26.315C47.5883 26.0764 47.7393 25.8611 47.9282 25.682C48.1172 25.5029 48.3402 25.3636 48.5841 25.2725C48.828 25.1814 49.0877 25.1404 49.3478 25.1517H52.9585V23.9341H49.1111C47.1324 23.9341 45.2722 25.2532 45.2722 27.05V28.0013C45.2426 29.7812 47.1113 31.1976 49.0899 31.2356Z" fill="#1D1D1B"/>
<path d="M95.0174 31.2356H98.9367V26.7118H95.5163V27.9379H97.0849V29.9504H95.2753C95.0166 29.9652 94.7575 29.9277 94.5136 29.8401C94.2696 29.7526 94.0459 29.6167 93.8556 29.4407C93.6654 29.2646 93.5126 29.0521 93.4064 28.8157C93.3002 28.5792 93.2427 28.3238 93.2375 28.0647V27.0712C93.2406 26.8106 93.2961 26.5534 93.4006 26.3147C93.5051 26.076 93.6565 25.8608 93.8458 25.6818C94.0351 25.5027 94.2584 25.3635 94.5025 25.2725C94.7466 25.1814 95.0066 25.1404 95.2669 25.1517H98.8775V23.9341H95.0301C93.0515 23.9341 91.1912 25.2532 91.1912 27.05V28.0013C91.1785 29.7812 93.0388 31.1976 95.0174 31.2356Z" fill="#1D1D1B"/>
<path d="M89.6396 31.1762V23.8789H87.7962V29.0792L84.4224 23.8789H82.1393V31.1762H83.9827V26.0436L87.3058 31.1762H89.6396Z" fill="#1D1D1B"/>
<path d="M59.1143 31.2186V28.0434L62.1245 23.9297H60.2177L58.1968 26.8004L56.1759 23.9297H54.2691L57.2751 28.0434V31.2186H59.1143Z" fill="#1D1D1B"/>
<path d="M75.9751 23.4775C71.4555 23.4775 71.4132 27.0881 71.4132 27.0881V28.0183C71.4132 28.0183 71.4343 31.5782 75.9751 31.5782C80.5158 31.5782 80.5243 28.0098 80.5243 28.0098V27.0586C80.5243 27.0586 80.4904 23.4775 75.9751 23.4775ZM78.4907 28.2001C78.4907 28.2001 78.4019 30.2126 75.9751 30.2126C73.5483 30.2126 73.4383 28.217 73.4383 28.217V26.8598C73.4383 26.8598 73.4679 24.8431 75.9751 24.8431C78.4822 24.8431 78.4907 26.8641 78.4907 26.8641V28.2001Z" fill="#1D1D1B"/>
<path d="M66.4961 25.4013H69.6797V24.2048H66.382C64.3653 24.1668 62.4839 25.6043 62.4839 27.3715V28.1621C62.4839 29.9378 64.378 31.3711 66.3947 31.3711H69.6924V30.1746H66.5088C65.9903 30.2045 65.4798 30.0365 65.0804 29.7045C64.681 29.3726 64.4224 28.9014 64.3568 28.3862H69.6882V27.1897H64.3442C64.4125 26.6758 64.6719 26.2064 65.0707 25.875C65.4694 25.5436 65.9783 25.3745 66.4961 25.4013Z" fill="#1D1D1B"/>
<path d="M32.597 7.02237C32.5978 8.40831 32.1875 9.76335 31.4181 10.9161C30.6486 12.0688 29.5545 12.9674 28.2743 13.4981C26.994 14.0289 25.585 14.168 24.2257 13.8978C22.8663 13.6276 21.6177 12.9603 20.6377 11.9803C19.6577 11.0003 18.9904 9.75164 18.7202 8.39229C18.45 7.03294 18.5891 5.62399 19.1199 4.34371C19.6506 3.06343 20.5492 1.96935 21.7019 1.19989C22.8546 0.430426 24.2097 0.0201612 25.5956 0.0209974C27.4525 0.0209974 29.2333 0.75864 30.5463 2.07165C31.8593 3.38466 32.597 5.16549 32.597 7.02237Z" fill="#0089A8"/>
<path d="M17.4104 10.1721C17.4104 11.2366 17.0948 12.2772 16.5034 13.1623C15.912 14.0473 15.0714 14.7372 14.088 15.1445C13.1045 15.5519 12.0224 15.6585 10.9783 15.4508C9.9343 15.2431 8.97531 14.7306 8.22261 13.9779C7.46991 13.2252 6.95731 12.2662 6.74964 11.2221C6.54197 10.1781 6.64856 9.09594 7.05592 8.11249C7.46327 7.12904 8.15311 6.28848 9.03819 5.69708C9.92327 5.10569 10.9638 4.79004 12.0283 4.79004C13.4557 4.79004 14.8247 5.35707 15.834 6.36641C16.8434 7.37575 17.4104 8.74472 17.4104 10.1721Z" fill="#0089A8"/>
<path d="M11.6394 15.5335C9.91016 15.4658 8.61642 16.8018 9.07304 18.8946V18.8608C9.07304 19.6779 8.83067 20.4767 8.37661 21.1561C7.92254 21.8355 7.27717 22.3649 6.52214 22.6774C5.76712 22.9899 4.93637 23.0715 4.13499 22.9118C3.33361 22.752 2.59761 22.3582 2.0201 21.7801C1.44259 21.202 1.04951 20.4656 0.890609 19.6641C0.731705 18.8625 0.814108 18.0318 1.12739 17.2771C1.44068 16.5224 1.97077 15.8776 2.65061 15.4242C3.33045 14.9709 4.12948 14.7293 4.94662 14.7302C6.58704 14.7302 7.34806 13.5041 6.94218 11.9102" fill="#0089A8"/>
<path d="M37.6324 23.3715C37.6324 23.3715 40.4355 23.566 40.4355 23.7943C40.4355 24.0226 37.5817 24.1917 37.5817 24.1917L37.5351 24.5342C37.5351 24.5342 14.8187 24.6526 4.46887 34.3175C4.08171 34.6553 3.60107 34.8676 3.09058 34.9263C1.60237 34.9517 -1.09925 34.8122 0.47775 30.8591C0.47775 30.8591 6.72233 25.3375 19.5032 23.1939C26.2382 22.0609 34.1021 23.0925 37.3956 22.9445L37.6324 23.3715Z" fill="#009F5E"/>
</g>
<defs>
<clipPath id="clip0_84_844">
<rect width="200" height="34.9139" fill="white"/>
</clipPath>
</defs>
</svg>
